<?xml version="1.0" standalone="no"?>
<!DOCTYPE svg PUBLIC "-//W3C//DTD SVG 20010904//EN"
 "http://www.w3.org/TR/2001/REC-SVG-20010904/DTD/svg10.dtd">
<svg version="1.0" xmlns="http://www.w3.org/2000/svg"
 width="992.000000pt" height="992.000000pt" viewBox="0 0 992.000000 992.000000"
 preserveAspectRatio="xMidYMid meet">
<metadata>
Created by potrace 1.14, written by Peter Selinger 2001-2017
</metadata>
<g transform="translate(0.000000,992.000000) scale(0.100000,-0.100000)"
fill="#000000" stroke="none">
<path d="M127 8792 l-127 -3 2 -327 3 -327 123 -1 c117 -1 122 0 124 20 0 11
2 32 4 46 4 38 12 126 19 210 3 43 11 80 19 88 22 23 502 19 525 -4 11 -11 5
-1774 -6 -1785 -11 -11 -22 -13 -163 -24 -71 -6 -127 -11 -160 -14 -15 -1 -16
-34 -11 -218 l1 -23 485 0 c381 0 485 3 486 13 4 47 0 219 -5 224 -6 7 -30 9
-171 18 -102 7 -146 12 -153 19 -9 9 -11 209 -11 856 1 706 4 908 14 932 6 15
32 17 266 16 l259 0 1 -27 c1 -14 2 -37 4 -51 1 -14 5 -56 9 -95 3 -38 8 -97
11 -130 3 -33 9 -63 14 -68 10 -10 214 -13 229 -3 7 4 10 112 10 331 l-1 325
-51 0 c-670 3 -1652 4 -1749 2z"/>
<path d="M2138 8792 l-37 -3 0 -120 c1 -65 4 -119 7 -120 4 0 23 -2 42 -4 203
-20 188 -12 192 -103 5 -99 0 -1575 -5 -1665 -2 -37 -7 -70 -11 -74 -8 -8 -17
-10 -101 -18 -33 -3 -69 -8 -80 -10 -11 -2 -26 -4 -32 -4 -10 -1 -13 -32 -13
-121 l0 -120 420 0 c329 0 420 3 421 13 5 86 2 220 -6 225 -12 7 -20 8 -135
17 -85 7 -140 12 -150 14 -3 0 -7 9 -8 19 -5 33 -8 807 -4 850 l4 43 97 -6
c53 -3 114 -8 136 -10 22 -2 83 -6 135 -9 52 -4 113 -8 135 -11 38 -5 142 -13
250 -20 28 -2 80 -6 118 -9 37 -3 100 -9 140 -12 39 -3 74 -8 77 -11 6 -6 6
-675 0 -760 -3 -35 -9 -63 -15 -64 -5 0 -19 -2 -30 -4 -38 -6 -160 -16 -207
-17 -34 -1 -49 -6 -52 -17 -6 -20 -5 -202 1 -218 4 -10 98 -13 423 -13 l419 0
3 120 c3 101 1 120 -12 121 -8 0 -24 3 -35 5 -11 2 -43 6 -71 8 -29 2 -57 7
-63 10 -6 4 -16 4 -21 1 -6 -4 -17 -2 -24 4 -18 15 -19 78 -19 871 0 735 4
940 18 948 12 8 23 10 90 16 28 3 50 6 50 7 0 1 17 3 38 4 21 1 41 6 45 10 10
9 10 212 1 227 -7 10 -90 13 -391 13 -211 0 -399 -4 -418 -8 l-35 -7 2 -111
c1 -61 3 -112 5 -114 4 -4 58 -11 163 -21 100 -9 129 -12 135 -13 3 -1 5 -152
4 -336 0 -240 -4 -339 -12 -347 -11 -11 -262 -13 -377 -3 -40 3 -168 13 -260
20 -27 2 -72 7 -100 10 -27 3 -65 8 -83 10 -80 10 -229 38 -244 46 -10 6 -18
20 -19 32 -3 102 1 560 4 564 6 6 42 10 127 17 97 8 162 16 169 20 8 5 7 224
-2 232 -6 6 -731 12 -799 6z"/>
<path d="M4454 8791 c-2 -2 -4 -58 -4 -123 0 -115 0 -118 23 -119 21 -1 32 -2
107 -13 19 -2 46 -5 60 -5 50 -2 53 -10 56 -148 2 -109 6 -1068 4 -1083 -1 -3
-3 -135 -5 -294 -3 -162 -9 -294 -14 -300 -6 -6 -25 -13 -43 -15 -18 -1 -46
-4 -63 -7 -16 -2 -48 -5 -70 -7 -22 -2 -43 -5 -47 -6 -5 0 -8 -55 -8 -121 l0
-120 854 0 853 0 -2 393 c-1 215 -3 394 -4 397 -2 9 -229 5 -238 -4 -4 -4 -8
-17 -9 -29 -1 -24 -11 -165 -20 -292 -13 -191 -10 -178 -52 -182 -34 -4 -723
-4 -777 0 -22 1 -45 6 -52 10 -9 6 -12 102 -12 382 l0 375 223 0 c171 0 223
-3 223 -12 1 -7 4 -38 8 -68 9 -65 12 -89 14 -113 1 -15 13 -17 120 -16 l119
2 4 41 c7 68 2 649 -6 677 l-7 26 -115 0 c-63 -1 -114 -3 -115 -6 -5 -48 -8
-76 -13 -126 -7 -70 -13 -106 -21 -113 -8 -8 -354 -7 -396 1 -45 9 -44 1 -43
307 2 324 5 398 19 417 12 16 41 17 321 17 278 0 470 -7 479 -16 6 -6 18 -113
30 -277 3 -40 7 -77 10 -81 2 -3 57 -6 121 -6 109 1 117 2 121 21 2 11 4 126
5 255 1 225 -5 367 -17 379 -7 6 -1614 8 -1621 2z"/>
<path d="M7379 8792 c-27 -3 -32 -21 -53 -167 -2 -16 -8 -50 -11 -74 -4 -24
-9 -58 -11 -75 -2 -17 -5 -42 -8 -55 -3 -13 -8 -49 -12 -80 -3 -31 -8 -58 -9
-61 -2 -3 -6 -30 -9 -60 -4 -30 -9 -66 -12 -80 -6 -35 -16 -108 -29 -230 -25
-219 -25 -633 0 -702 2 -7 6 -24 9 -38 3 -21 13 -47 32 -90 1 -3 5 -15 9 -27
4 -13 12 -23 17 -23 6 0 54 32 107 71 96 71 199 128 341 188 41 18 84 36 95
41 59 26 207 80 218 80 7 0 17 4 23 8 5 5 38 19 74 32 217 77 447 194 526 267
34 32 81 109 88 146 12 55 16 70 19 73 4 4 151 7 226 5 l44 -1 -6 -62 c-7 -74
-28 -158 -40 -158 -4 0 -6 -4 -3 -8 10 -16 -66 -118 -141 -189 -42 -40 -80
-73 -83 -73 -4 0 -20 -11 -35 -24 -27 -24 -218 -124 -300 -158 -44 -18 -178
-70 -435 -168 -157 -60 -289 -117 -300 -129 -3 -3 -18 -13 -35 -21 -106 -51
-175 -117 -190 -181 -6 -23 3 -33 85 -100 51 -41 94 -73 97 -72 2 1 30 24 61
52 31 28 79 64 106 82 79 49 271 142 401 194 66 26 129 51 140 56 11 4 90 36
174 69 423 167 628 332 703 565 36 116 37 233 3 435 -2 14 -7 48 -10 75 -3 28
-8 61 -10 75 -2 14 -8 57 -14 95 -6 39 -13 86 -15 105 -5 37 -31 201 -41 260
-3 19 -8 55 -11 80 -3 25 -8 47 -10 49 -4 5 -1726 8 -1765 3z"/>
<path d="M9135 7039 c-89 -65 -319 -184 -495 -255 -63 -25 -119 -47 -125 -48
-16 -3 -309 -118 -320 -126 -5 -4 -30 -15 -54 -24 -25 -10 -76 -36 -115 -58
l-70 -41 44 -20 c25 -10 56 -20 70 -21 14 -1 30 -4 35 -7 14 -8 249 -4 305 5
313 50 569 209 727 449 38 58 103 185 103 202 0 15 -33 -3 -105 -56z"/>
<path d="M811 6184 c-124 -25 -143 -31 -244 -81 -193 -94 -314 -252 -352 -458
-7 -38 -7 -152 0 -185 14 -70 19 -86 40 -134 87 -196 275 -310 640 -387 33 -7
67 -14 75 -16 8 -2 24 -6 35 -8 11 -1 49 -11 85 -20 36 -9 72 -18 80 -20 62
-12 228 -66 254 -83 6 -4 14 -7 18 -7 3 0 33 -17 65 -38 104 -68 150 -165 140
-300 -10 -145 -100 -275 -231 -337 -117 -54 -331 -77 -477 -50 -35 7 -68 13
-74 14 -5 1 -16 5 -22 9 -7 5 -13 6 -13 3 0 -12 -197 73 -228 98 -71 57 -157
165 -166 208 -2 7 -8 26 -14 41 -7 16 -14 43 -17 60 -2 18 -6 41 -9 52 -2 11
-5 30 -5 43 -1 22 -1 23 -138 20 l-138 -3 -12 -65 c-13 -75 -23 -140 -29 -189
-2 -19 -6 -48 -8 -66 -3 -17 -8 -58 -12 -91 -3 -32 -8 -72 -10 -89 -5 -49 -15
-176 -18 -237 -3 -48 0 -58 13 -59 54 -4 204 -3 211 1 4 3 11 21 14 40 3 19
10 50 15 68 5 18 10 35 10 37 0 24 15 96 20 99 4 3 23 -10 42 -27 84 -77 210
-156 290 -181 13 -5 29 -10 34 -11 49 -16 159 -44 195 -50 25 -4 59 -9 75 -11
51 -9 330 -3 330 6 0 1 15 3 34 6 73 9 252 69 259 86 2 5 10 8 18 8 8 0 14 5
14 10 0 6 5 10 11 10 15 0 77 48 124 95 155 158 221 359 193 585 -20 152 -128
317 -266 407 -57 37 -190 100 -228 108 -6 2 -38 11 -70 20 -62 18 -82 23 -124
31 -14 2 -35 6 -47 9 -13 3 -25 6 -28 6 -2 0 -19 5 -37 10 -18 6 -44 12 -56
15 -13 3 -49 12 -80 20 -32 9 -73 20 -92 24 -19 4 -50 13 -68 18 -18 6 -36 12
-40 13 -76 20 -174 65 -210 98 -123 110 -118 296 12 423 99 96 242 142 436
141 133 0 191 -13 293 -63 136 -66 253 -218 283 -364 2 -10 8 -34 14 -52 l11
-33 132 2 132 2 1 365 c0 201 -1 371 -4 378 -3 9 -36 12 -118 12 -101 0 -114
-2 -115 -17 -1 -10 -4 -34 -6 -53 -3 -19 -5 -50 -6 -68 -2 -38 -2 -38 -94 21
-110 71 -253 129 -353 143 -106 16 -279 11 -389 -12z"/>
<path d="M2098 6147 c-3 -19 -3 -165 1 -207 0 -9 11 -17 24 -17 68 -4 210 -23
217 -29 13 -14 2 -1806 -11 -1818 -4 -4 -29 -7 -167 -22 l-63 -7 3 -120 3
-121 842 0 c464 -1 843 1 844 4 9 50 11 123 10 375 0 302 -4 401 -16 413 -10
10 -197 11 -214 2 -17 -9 -18 -14 -26 -134 -3 -50 -8 -125 -10 -166 -3 -41 -7
-104 -10 -138 -2 -35 -7 -67 -10 -70 -8 -8 -795 -8 -839 0 -21 3 -32 12 -37
30 -10 37 -8 569 2 596 5 12 5 22 0 22 -5 0 -5 18 -1 40 4 22 6 40 3 40 -2 0
1 8 6 18 8 15 28 17 205 15 108 0 205 -2 215 -2 19 -1 20 -4 35 -136 2 -22 4
-43 5 -46 2 -14 240 -14 242 0 18 100 13 680 -6 699 -8 8 -227 8 -232 0 -7
-12 -24 -143 -26 -196 -1 -25 -52 -34 -207 -34 -146 0 -226 5 -237 15 -3 4 -6
577 -4 707 l1 25 408 0 c399 0 407 0 408 -20 1 -11 3 -22 4 -25 1 -3 4 -23 5
-45 2 -22 7 -62 10 -90 3 -27 8 -79 11 -115 3 -36 7 -71 9 -78 6 -17 232 -12
244 6 6 10 8 561 2 634 -1 15 -64 16 -820 16 l-819 0 -4 -21z"/>
<path d="M4529 6153 c-5 -90 -3 -201 3 -215 5 -9 16 -17 26 -17 16 1 44 -1
247 -16 44 -4 84 -10 88 -14 5 -5 -21 -93 -56 -197 -186 -541 -286 -834 -301
-874 -9 -25 -19 -52 -21 -60 -4 -16 -142 -424 -152 -450 -3 -8 -7 -19 -9 -25
-15 -64 -70 -189 -88 -200 -19 -12 -105 -24 -216 -29 -20 -1 -41 -5 -47 -9
-12 -7 -16 -236 -5 -238 4 0 36 -2 72 -4 36 -1 88 -4 116 -5 27 -2 55 0 62 4
7 4 12 4 12 -1 0 -4 48 -7 107 -6 244 5 436 13 454 18 16 5 20 15 19 48 0 23
0 51 0 62 1 94 -1 114 -7 118 -8 5 -79 14 -178 23 -33 3 -63 8 -66 10 -4 2 -1
21 6 41 91 258 147 421 150 435 2 9 8 25 13 35 6 10 11 21 12 25 11 44 13 46
36 42 13 -2 59 -6 101 -9 43 -3 98 -7 123 -9 120 -11 192 -19 285 -31 17 -2
55 -7 85 -10 30 -4 66 -9 80 -11 14 -2 51 -6 84 -9 62 -6 93 -18 113 -44 11
-13 134 -256 138 -271 0 -3 20 -45 44 -93 23 -49 41 -90 39 -92 -4 -4 -74 -13
-153 -21 -33 -3 -63 -8 -67 -10 -3 -2 -7 -54 -7 -115 0 -128 -3 -124 114 -128
159 -5 415 -6 415 0 0 3 15 4 33 2 17 -2 37 -4 42 -4 13 0 216 12 233 13 13 1
13 4 13 118 1 128 5 117 -53 125 -28 4 -81 9 -118 10 -82 4 -109 11 -134 39
-10 12 -78 143 -151 291 -73 149 -195 396 -271 550 -75 154 -138 282 -139 285
-1 6 -200 412 -355 724 l-105 211 -332 3 c-312 2 -333 1 -334 -15z m675 -646
c33 -67 115 -235 183 -373 68 -138 123 -254 123 -257 0 -3 -17 -4 -37 -2 -127
12 -162 16 -193 20 -19 2 -66 7 -105 10 -38 4 -81 8 -95 10 -14 2 -61 7 -105
10 -44 4 -83 10 -88 14 -4 4 19 83 52 177 32 93 77 225 100 294 23 69 46 132
50 140 5 9 12 30 16 48 13 61 36 40 99 -91z"/>
<path d="M8308 6155 c-2 -2 -26 -6 -55 -9 -28 -3 -69 -12 -90 -21 -21 -9 -39
-16 -41 -15 -7 2 -73 -38 -118 -71 -56 -41 -107 -99 -141 -159 -55 -96 -64
-265 -23 -403 13 -43 20 -80 17 -84 -7 -6 -38 -10 -98 -12 l-37 -1 2 -122 c1
-137 -9 -123 96 -132 74 -7 144 -17 150 -23 2 -2 4 -233 5 -513 l0 -510 -25
-4 c-34 -7 -82 -13 -161 -21 l-66 -7 0 -106 c0 -58 2 -112 4 -121 4 -14 44
-16 391 -15 213 1 389 2 392 3 3 0 6 55 6 120 l1 119 -56 6 c-31 4 -68 9 -84
11 -15 3 -45 6 -67 8 l-40 2 0 518 0 517 43 1 c23 1 65 3 92 4 28 2 93 7 145
10 52 3 99 10 104 16 13 12 16 32 16 119 0 87 -3 113 -16 116 -5 2 -85 5 -179
7 -143 4 -177 8 -217 25 -118 52 -187 192 -149 305 27 79 81 127 164 145 82
17 130 0 346 -127 159 -93 142 -93 203 -3 68 99 90 134 86 136 -2 2 -53 37
-115 78 -216 147 -301 189 -413 204 -19 3 -43 6 -52 8 -9 2 -18 2 -20 1z"/>
<path d="M7017 5384 c-1 -1 -20 -5 -42 -8 -90 -14 -113 -20 -175 -49 -186 -86
-310 -252 -335 -447 -2 -19 -4 -37 -5 -40 -3 -11 0 -97 5 -130 25 -179 123
-330 269 -418 179 -109 412 -119 604 -26 119 57 209 148 269 274 74 153 71
357 -6 517 -32 66 -43 81 -106 148 -67 72 -195 144 -283 160 -66 12 -190 24
-195 19z m108 -289 c140 -20 246 -144 249 -290 1 -96 -17 -153 -71 -215 -64
-72 -134 -103 -233 -103 -41 0 -86 3 -99 6 -140 36 -239 173 -228 314 6 78 12
99 43 146 49 74 97 110 179 135 41 12 92 19 110 15 6 -1 28 -5 50 -8z"/>
<path d="M997 3544 c-2 -2 -20 -4 -40 -6 -37 -2 -38 -3 -36 -38 2 -19 0 -40
-3 -45 -3 -6 -4 -19 -1 -30 2 -11 4 -44 3 -72 0 -48 2 -53 23 -54 12 0 31 -2
43 -4 11 -3 57 -6 100 -8 125 -6 132 -14 211 -227 19 -52 39 -105 44 -117 5
-13 13 -33 18 -45 5 -13 33 -86 61 -163 29 -77 58 -153 65 -170 7 -16 22 -55
33 -85 18 -51 82 -218 137 -365 13 -33 48 -127 79 -210 31 -82 61 -159 66
-170 5 -11 23 -58 41 -105 33 -90 102 -271 146 -383 l26 -68 131 3 130 3 49
125 c27 69 55 139 62 155 7 17 27 68 44 115 18 47 39 101 48 120 8 19 40 100
70 180 30 80 61 159 68 175 7 17 24 59 38 95 76 198 161 407 172 423 11 15 15
10 35 -45 28 -77 108 -286 120 -313 5 -11 57 -148 116 -305 58 -157 113 -299
121 -317 8 -17 16 -37 17 -45 1 -7 10 -30 19 -52 9 -21 17 -41 17 -44 0 -11
93 -247 102 -259 6 -8 49 -11 136 -10 l127 2 93 285 c51 157 96 292 99 300 4
8 7 17 7 20 6 21 90 282 101 310 7 19 43 130 80 245 37 116 75 233 85 260 10
28 48 145 85 260 137 425 132 414 187 416 18 1 42 3 53 4 11 1 54 5 95 9 41 4
76 9 79 11 9 10 6 227 -4 234 -8 6 -796 8 -827 2 -3 0 -6 -16 -6 -33 0 -18 -1
-35 -2 -38 -6 -16 -6 -52 1 -55 4 -3 3 -21 -1 -40 -4 -19 -4 -37 1 -40 4 -3 6
-12 3 -20 -4 -11 1 -15 17 -15 37 1 142 -11 214 -23 11 -2 19 -7 19 -11 -3
-17 -46 -154 -59 -186 -12 -31 -74 -222 -237 -730 -27 -85 -53 -164 -58 -175
-8 -20 -62 -191 -66 -210 -1 -5 -18 -55 -38 -110 -20 -55 -39 -111 -42 -125
-12 -58 -34 -37 -76 76 -20 55 -58 153 -83 219 -26 66 -51 134 -56 150 -5 17
-13 39 -19 50 -9 19 -90 231 -151 395 -15 41 -69 183 -119 315 -51 132 -100
264 -110 293 l-19 52 27 1 c15 1 38 2 52 4 14 1 63 6 109 9 47 4 88 9 92 12 4
2 8 54 8 114 -1 97 -3 111 -19 120 -25 13 -799 8 -820 -5 -13 -8 -16 -32 -15
-122 l0 -112 60 -7 c33 -3 84 -8 113 -9 71 -4 97 -23 117 -87 10 -29 29 -80
42 -113 18 -42 24 -70 20 -98 -4 -32 -44 -146 -78 -222 -5 -11 -38 -96 -74
-190 -36 -93 -70 -179 -75 -190 -5 -11 -37 -92 -70 -180 -34 -88 -68 -173 -75
-190 -8 -16 -39 -96 -70 -178 -54 -140 -94 -214 -95 -176 0 9 -7 30 -15 45 -8
16 -15 36 -15 45 0 8 -4 19 -8 25 -5 5 -17 32 -26 59 -10 28 -21 59 -26 70
-28 71 -46 119 -105 275 -87 232 -125 331 -136 355 -5 11 -18 47 -30 80 -11
33 -27 74 -34 90 -7 17 -43 111 -79 210 -37 99 -71 189 -76 200 -18 44 -60
159 -57 161 1 1 34 5 72 9 39 4 79 9 90 11 11 1 35 3 53 3 l32 1 0 119 0 119
-27 5 c-27 6 -741 6 -746 1z"/>
<path d="M4888 3545 c-2 -2 -27 -5 -56 -6 l-52 -3 -1 -65 c-1 -74 2 -165 5
-168 1 -1 33 -5 71 -8 80 -7 134 -13 155 -20 19 -6 19 -2 19 -825 0 -576 -4
-989 -11 -996 -7 -6 -171 -26 -224 -27 -8 0 -11 -38 -10 -121 l1 -121 388 -1
387 -1 1 31 c2 109 0 196 -5 204 -3 5 -36 12 -73 16 -81 8 -147 17 -151 21 -5
4 -14 59 -13 73 0 6 1 18 1 25 -5 231 -3 1250 3 1254 4 2 3 12 -3 22 -5 10 -7
20 -5 23 3 2 7 96 10 208 3 112 8 207 13 212 4 4 30 10 57 13 107 11 160 17
164 21 7 6 6 216 -1 227 -5 9 -100 12 -337 13 -181 1 -331 0 -333 -1z"/>
<path d="M5757 3543 c-14 -4 -18 -15 -17 -51 0 -26 0 -78 0 -117 1 -38 2 -70
3 -71 4 -5 213 -24 284 -27 24 -1 43 -6 44 -12 4 -49 3 -1799 -2 -1807 -3 -5
-28 -11 -55 -13 -27 -2 -49 -4 -49 -5 0 -1 -18 -3 -40 -5 -22 -3 -54 -7 -71
-10 l-31 -5 2 -108 c1 -59 3 -112 3 -118 2 -14 840 -16 848 -2 10 15 8 218 -2
227 -8 8 -97 18 -238 26 -27 2 -51 8 -55 14 -4 5 -8 63 -11 128 -4 147 -2
1063 4 1158 2 39 4 86 5 105 l1 34 43 -60 c51 -72 65 -94 74 -114 4 -8 9 -17
12 -20 9 -8 61 -89 61 -95 0 -3 5 -11 10 -18 13 -14 58 -83 125 -192 27 -44
53 -84 58 -90 17 -22 208 -322 219 -345 7 -14 15 -27 18 -30 5 -4 138 -211
190 -294 16 -27 81 -129 138 -218 21 -31 61 -94 90 -140 95 -151 82 -142 213
-144 63 -1 123 2 134 6 20 7 20 16 19 1074 0 955 2 1066 15 1070 9 3 43 8 76
11 33 3 69 8 80 10 11 2 34 4 50 4 l30 1 0 119 0 119 -35 5 c-34 5 -772 1
-797 -4 -7 -1 -13 -12 -14 -23 -3 -65 -1 -207 3 -211 2 -2 40 -7 84 -10 72 -5
142 -12 186 -18 10 -2 20 -6 24 -9 9 -9 22 -618 14 -653 -1 -5 -2 -14 -1 -20
5 -25 -7 -724 -13 -818 -2 -26 -5 -49 -8 -52 -8 -8 -31 23 -91 120 -31 50 -60
95 -64 100 -7 8 -106 164 -138 216 -5 9 -17 27 -26 40 -30 45 -294 459 -304
478 -6 10 -23 36 -37 57 -36 54 -187 292 -209 332 -11 18 -24 39 -29 45 -6 7
-65 98 -131 202 -66 105 -129 199 -140 210 -18 19 -34 20 -277 22 -141 0 -265
-1 -275 -4z"/>
<path d="M8219 3545 c-1 0 -2 -55 -3 -122 -2 -118 -1 -123 19 -124 11 0 34 -2
50 -5 37 -5 123 -15 152 -17 l22 -1 0 -913 0 -913 -22 -1 c-12 -1 -31 -3 -42
-5 -11 -2 -49 -6 -85 -9 -97 -8 -100 -10 -101 -58 -3 -79 1 -179 7 -188 3 -5
363 -9 848 -9 l844 0 5 27 c6 32 1 717 -6 748 -4 18 -13 20 -120 23 -65 1
-118 -1 -118 -5 -1 -4 -3 -28 -4 -53 -2 -25 -6 -74 -9 -110 -5 -58 -14 -182
-21 -293 -1 -20 -5 -40 -9 -44 -9 -10 -58 -11 -391 -11 -297 -1 -460 4 -475
13 -5 3 -9 174 -9 394 l0 389 194 0 c106 0 207 -3 225 -7 31 -6 32 -7 35 -71
4 -65 14 -140 21 -151 2 -3 55 -6 119 -6 99 0 115 2 116 16 1 9 3 27 5 41 2
14 3 149 4 300 0 235 -3 308 -12 376 -1 8 -38 12 -120 11 -112 0 -118 -2 -119
-21 0 -12 -2 -30 -4 -41 -4 -19 -16 -125 -18 -153 0 -10 -49 -12 -224 -11
l-223 2 2 359 3 360 403 0 c222 0 405 -2 408 -5 2 -2 6 -26 9 -52 2 -26 6 -73
10 -104 7 -67 16 -157 19 -190 2 -28 12 -31 116 -34 107 -4 127 4 132 56 4 32
1 448 -3 579 0 10 -6 21 -12 25 -8 5 -1421 12 -1618 8z"/>
</g>
</svg>
