<svg width="62" height="48" viewBox="0 0 62 48" fill="none" xmlns="http://www.w3.org/2000/svg">
<path d="M57.1482 0.0488281C57.3375 1.2909 57.5253 2.49683 57.7032 3.70438C57.7976 4.34402 57.8757 4.98528 57.9575 5.62653C58.1546 7.17008 57.6082 8.43264 56.3813 9.36676C55.7684 9.83327 55.0791 10.2264 54.3742 10.5441C53.3012 11.0268 52.1742 11.3914 51.0897 11.852C50.3578 12.1626 49.6434 12.5229 48.9541 12.9177C48.5841 13.1296 48.2834 13.4602 47.8969 13.7822C47.5176 13.4759 47.117 13.1528 46.741 12.8497C46.8431 12.353 47.1198 12.0591 47.4631 11.8547C47.9903 11.5408 48.5306 11.2344 49.0977 11.0025C50.205 10.5495 51.343 10.1709 52.452 9.72163C53.1053 9.45682 53.7526 9.15642 54.3551 8.79561C54.8303 8.51031 55.2723 8.14464 55.6604 7.74878C56.276 7.121 56.592 6.34707 56.5707 5.38276C56.0124 5.32721 55.4623 5.3558 54.9088 5.36443C54.8679 5.4793 54.8232 5.56073 54.8101 5.64649C54.7151 6.25808 54.3655 6.71759 53.8634 7.03579C53.3154 7.38312 52.7429 7.70779 52.1447 7.95912C51.1258 8.38734 50.0713 8.73251 49.0463 9.14671C48.3418 9.43148 47.6393 9.73619 46.9751 10.1013C46.491 10.3672 46.0702 10.7464 45.5905 11.098C45.2559 10.5414 45.1233 9.91795 45.0758 9.27723C44.9503 7.58482 45.0802 5.90375 45.3307 4.22861C45.5108 3.02105 45.6855 1.81243 45.8656 0.604875C45.8918 0.427974 45.9332 0.253232 45.9736 0.0499062C49.6996 0.0488275 53.4147 0.0488281 57.1482 0.0488281Z" fill="white"/>
<path d="M5.75 34.3627C5.75 33.8568 5.75 33.3806 5.75 32.9114C6.17025 32.7971 10.3836 32.7717 11.0669 32.8774C11.0669 33.3472 11.0669 33.8234 11.0669 34.3471C10.5741 34.4005 10.0774 34.4544 9.49401 34.5175C10.7673 37.9207 12.0504 41.265 13.3619 44.7043C13.4776 44.5155 13.5551 44.4228 13.5966 44.3165C14.6019 41.7547 15.6001 39.1902 16.6109 36.6306C16.7184 36.3582 16.7255 36.1199 16.6076 35.855C16.4761 35.5595 16.3539 35.2569 16.2665 34.9463C16.1667 34.5903 15.956 34.469 15.5909 34.4711C15.2301 34.4733 14.8688 34.4053 14.4682 34.3638C14.4682 33.8757 14.4682 33.399 14.4682 32.9184C14.8219 32.7949 18.9075 32.7512 19.772 32.8731C19.8381 33.352 19.8184 33.8412 19.7786 34.3514C19.1853 34.408 18.6319 34.4609 17.9977 34.5218C19.2628 37.8495 20.505 41.1183 21.7477 44.3872C21.792 44.3893 21.8356 44.3915 21.8798 44.3937C22.287 43.3387 22.5964 42.2493 22.9512 41.176C23.3179 40.0666 23.676 38.9546 24.0378 37.8435C24.3931 36.753 24.7484 35.6625 25.1206 34.5197C24.5525 34.4625 24.0515 34.4118 23.5057 34.3568C23.5057 33.8617 23.5057 33.3725 23.5057 32.8494C25.2609 32.8494 26.9965 32.8494 28.7691 32.8494C28.7691 33.3553 28.7691 33.831 28.7691 34.3584C28.35 34.3994 27.9401 34.4474 27.5286 34.4782C26.9965 34.5181 26.9926 34.511 26.8224 35.032C26.0195 37.493 25.2183 39.9545 24.4171 42.4159C23.9052 43.9886 23.3943 45.5613 22.8808 47.1334C22.8311 47.2855 22.7694 47.4344 22.7029 47.6118C22.1762 47.6118 21.6561 47.6118 21.0786 47.6118C19.98 44.7286 18.8748 41.827 17.7183 38.7928C17.5917 39.0462 17.5071 39.1881 17.4476 39.3396C16.4565 41.8685 15.4686 44.3985 14.4791 46.9274C14.3885 47.1593 14.2908 47.388 14.1942 47.6237C13.6512 47.6237 13.1463 47.6237 12.5951 47.6237C12.5105 47.423 12.4155 47.2138 12.3342 47.0002C10.8164 43.0173 9.29426 39.0355 7.79283 35.0461C7.64493 34.6534 7.46755 34.4582 7.02384 34.4695C6.61287 34.4808 6.19808 34.4043 5.75 34.3627Z" fill="white"/>
<path d="M35.875 34.3644C35.875 33.8494 35.875 33.3737 35.875 32.864C36.0436 32.8462 36.1823 32.8193 36.3209 32.8187C37.1936 32.815 38.0668 32.8322 38.939 32.809C39.2779 32.7999 39.4575 32.9347 39.6288 33.2054C41.2378 35.7489 42.8593 38.2848 44.477 40.8229C45.1259 41.8411 45.7743 42.8599 46.4254 43.8771C46.5187 44.0232 46.6235 44.1624 46.7386 44.3269C46.8882 43.938 46.94 35.4323 46.8074 34.53C46.1983 34.4745 45.5734 34.4173 44.9174 34.3574C44.9174 33.8564 44.9174 33.3802 44.9174 32.9077C45.3289 32.7945 49.6269 32.7751 50.2234 32.8883C50.2234 33.3548 50.2234 33.8294 50.2234 34.3526C49.7224 34.4092 49.2252 34.4653 48.6505 34.53C48.6489 36.0266 48.6461 37.5109 48.645 38.9951C48.6439 40.4685 48.645 41.942 48.645 43.4154C48.645 44.905 48.645 46.3952 48.645 47.943C48.1009 48.0115 47.578 47.9927 47.0623 47.9549C46.9324 47.9452 46.7921 47.7413 46.7004 47.599C45.8217 46.2355 44.9523 44.8662 44.0807 43.4979C42.8025 41.4916 41.5249 39.4848 40.245 37.4791C40.1435 37.32 40.0278 37.17 39.8946 36.9813C39.7593 37.451 39.7424 45.3532 39.8652 45.9319C40.4611 45.9842 41.0719 46.0376 41.7355 46.0953C41.7923 46.592 41.7792 47.0828 41.7366 47.6103C39.976 47.6103 38.2382 47.6103 36.4361 47.6103C36.3438 47.1297 36.3815 46.64 36.4202 46.1061C36.936 46.0468 37.4321 45.9891 37.9593 45.9281C37.9593 42.1356 37.9593 38.3722 37.9593 34.5537C37.2782 34.4923 36.6145 34.4319 35.875 34.3644Z" fill="white"/>
<path d="M16.5347 13.135C17.129 13.1873 17.7387 13.2412 18.3909 13.2984C18.3909 13.8043 18.3909 14.2934 18.3909 14.815C16.6275 14.815 14.8919 14.815 13.123 14.815C13.123 14.3069 13.123 13.8301 13.123 13.3032C13.6115 13.2498 14.0918 13.1975 14.5628 13.1463C14.6823 12.7466 14.7194 2.49351 14.6016 1.7282C14.1371 1.67535 13.6568 1.62033 13.134 1.56047C13.134 1.06699 13.134 0.576205 13.134 0.0514388C14.8859 0.0514388 16.6215 0.0514388 18.3963 0.0514388C18.3963 0.550857 18.3963 1.02708 18.3963 1.5567C17.7725 1.61603 17.1487 1.67535 16.4905 1.73791C16.4905 2.99832 16.4905 4.22906 16.4905 5.45334C17.2218 5.82386 22.4116 6.23159 23.3334 6.03042C23.3334 4.626 23.3334 3.21405 23.3334 1.74169C22.7063 1.68236 22.0825 1.62303 21.4237 1.56047C21.4237 1.06375 21.4237 0.586447 21.4237 0.108067C21.8025 -0.00303378 25.6639 -0.0440217 26.6866 0.0600684C26.7696 0.53899 26.7363 1.0287 26.6997 1.5567C26.1965 1.61441 25.7157 1.66995 25.2453 1.72388C25.1345 2.14995 25.1143 12.525 25.2251 13.1371C25.6906 13.191 26.1709 13.2466 26.6899 13.3065C26.6899 13.8113 26.6899 14.3004 26.6899 14.8187C24.9292 14.8187 23.2079 14.8187 21.4499 14.8187C21.3184 14.329 21.4145 13.8372 21.3839 13.3054C22.0448 13.2466 22.6545 13.1927 23.2559 13.1393C23.3907 12.7542 23.4251 8.58952 23.3078 7.95204C21.0488 7.77136 18.7931 7.59069 16.5276 7.40947C16.4244 7.76435 16.4097 12.5676 16.5347 13.135Z" fill="white"/>
<path d="M61.9314 47.622C58.3953 47.622 54.8915 47.622 51.3519 47.622C51.2482 47.122 51.2913 46.6312 51.3284 46.1038C51.8278 46.0471 52.3086 45.9927 52.867 45.929C52.8675 42.1338 52.867 38.3526 52.8675 34.5336C52.3354 34.4721 51.8551 34.4171 51.3355 34.3572C51.3355 33.8567 51.3355 33.367 51.3355 32.8477C54.743 32.8477 58.1192 32.8477 61.4921 32.8477C61.6296 33.2219 61.6678 36.2228 61.5406 36.9476C61.0751 37.077 60.5943 37.0064 60.0392 36.987C59.9623 36.199 59.8859 35.4235 59.8067 34.615C58.0913 34.615 56.4114 34.615 54.695 34.615C54.695 36.1241 54.695 37.6029 54.695 39.1189C55.631 39.1189 56.5293 39.1189 57.4735 39.1189C57.527 38.6465 57.5783 38.1897 57.6329 37.7043C58.1503 37.7043 58.6328 37.7043 59.1081 37.7043C59.2337 38.1444 59.244 41.8415 59.1201 42.3581C58.6453 42.3581 58.1634 42.3581 57.634 42.3581C57.5821 41.8916 57.5336 41.451 57.4779 40.9462C56.5599 40.8345 55.649 40.882 54.6972 40.896C54.6972 42.5739 54.6972 44.18 54.6972 45.7823C55.0956 45.8972 59.4318 45.9312 60.2057 45.8179C60.2766 44.7722 60.3487 43.7086 60.4218 42.6235C60.9419 42.6235 61.4102 42.6235 61.8757 42.6235C62.0002 43.0032 62.0444 46.6495 61.9314 47.622Z" fill="white"/>
<path d="M13.1272 31.2057C13.1272 30.7068 13.1272 30.2306 13.1272 29.7005C13.6091 29.6476 14.0894 29.5947 14.5626 29.543C14.6843 29.1525 14.7291 19.0056 14.6101 18.1287C14.1451 18.0742 13.6653 18.0181 13.1245 17.955C13.0639 17.4712 13.0852 16.9794 13.1174 16.4492C16.5367 16.4492 19.9292 16.4492 23.3954 16.4492C23.4287 17.8062 23.4047 19.1615 23.4118 20.533C22.8824 20.6862 22.3994 20.5918 21.8432 20.609C21.7641 19.8054 21.6877 19.0299 21.608 18.2193C19.8954 18.2193 18.2144 18.2193 16.493 18.2193C16.493 19.7601 16.493 21.2789 16.493 22.7965C16.8887 22.9325 18.6663 22.9459 19.2721 22.8073C19.3223 22.3656 19.3741 21.9072 19.4298 21.4132C19.9379 21.4132 20.4204 21.4132 20.9056 21.4132C21.0328 21.767 21.0748 24.99 20.9547 25.8259C20.4701 25.9365 19.9745 25.8912 19.4418 25.848C19.3872 25.4608 19.3359 25.0941 19.2754 24.6626C18.8147 24.6626 18.3661 24.6626 17.918 24.6626C17.4645 24.6626 17.0115 24.6626 16.5727 24.6626C16.4281 25.0676 16.3948 28.7378 16.5154 29.4C16.9198 29.5009 21.3488 29.5241 22.008 29.4168C22.0752 28.3845 22.1434 27.3355 22.2133 26.2644C22.7219 26.1501 23.2033 26.2067 23.6765 26.2213C23.7944 26.6344 23.8189 30.5682 23.7092 31.2062C20.1988 31.2057 16.6813 31.2057 13.1272 31.2057Z" fill="white"/>
<path d="M34.109 4.89407C34.6482 4.89407 35.116 4.89407 35.5782 4.89407C35.6929 5.30882 35.7158 8.90558 35.6077 9.55062C35.1329 9.55062 34.6515 9.55062 34.1265 9.55062C34.0768 9.12832 34.0277 8.70981 33.9731 8.24761C33.0284 8.24761 32.13 8.24761 31.1968 8.24761C31.1968 9.86289 31.1968 11.4345 31.1968 13.0001C31.6405 13.1107 36.106 13.1253 36.6998 13.0115C36.7702 11.9792 36.8417 10.9297 36.9154 9.84455C37.4355 9.84455 37.9169 9.84455 38.4714 9.84455C38.4965 11.4954 38.479 13.1361 38.4845 14.8123C34.8988 14.8123 31.3796 14.8123 27.8113 14.8123C27.8113 14.3118 27.8113 13.8215 27.8113 13.3049C28.3173 13.2493 28.8008 13.1965 29.2767 13.1441C29.393 12.7413 29.4252 2.45416 29.3095 1.73147C28.8292 1.67538 28.3325 1.61713 27.8086 1.55565C27.8086 1.04167 27.8086 0.550883 27.8086 0.0390625C31.2328 0.0390625 34.6106 0.0390625 37.9818 0.0390625C38.1068 0.443017 38.1368 3.46001 38.0217 4.16167C37.549 4.16167 37.0688 4.16167 36.5241 4.16167C36.4542 3.40715 36.3838 2.6467 36.3145 1.89758C35.9188 1.76491 32.0973 1.72176 31.2563 1.83232C31.1411 2.20877 31.1078 5.69983 31.2126 6.37938C31.5854 6.49048 33.3264 6.51907 33.9491 6.41659C33.9813 6.18469 34.0211 5.93983 34.0479 5.69336C34.0741 5.44689 34.0861 5.19825 34.109 4.89407Z" fill="white"/>
<path d="M10.2532 17.5133C10.2958 17.125 10.3329 16.7922 10.3716 16.4416C10.8836 16.4416 11.3475 16.4416 11.8496 16.4416C11.8496 18.0251 11.8496 19.5788 11.8496 21.1709C11.2945 21.1709 10.7575 21.1709 10.1735 21.1709C10.1337 21.0151 10.0873 20.8468 10.048 20.6764C9.68449 19.1091 8.41502 18.0542 6.79244 17.9733C6.11513 17.9399 5.44658 17.9873 4.80093 18.209C4.27589 18.3891 3.81253 18.6631 3.47469 19.1135C2.74772 20.0816 3.00642 21.3506 4.11979 21.8306C4.89425 22.1644 5.74237 22.3354 6.56485 22.5549C7.24816 22.7372 7.94511 22.8709 8.62897 23.0526C8.97826 23.1454 9.31719 23.2835 9.65066 23.4254C12.5689 24.6669 12.642 27.9293 11.1215 29.736C10.3771 30.6205 9.4056 31.1167 8.28513 31.3227C6.86339 31.5843 5.45911 31.4694 4.0936 30.9932C3.39992 30.7516 2.77883 30.3838 2.2467 29.8752C2.17029 29.8024 2.08461 29.7392 1.9236 29.6049C1.8019 30.1825 1.69383 30.6933 1.58522 31.2094C1.08257 31.2094 0.617566 31.2094 0.157477 31.2094C0.0827056 30.7321 0.489308 27.1969 0.732179 26.1883C1.27468 26.1883 1.82755 26.1883 2.41371 26.1883C2.43936 26.341 2.46665 26.4769 2.48357 26.6139C2.62984 27.7971 3.24056 28.6622 4.33429 29.1611C5.58082 29.7296 6.89177 29.8476 8.22346 29.5375C9.38104 29.2684 10.1511 28.4411 10.2941 27.3646C10.4169 26.4402 10.108 25.6716 9.26698 25.2229C8.73048 24.937 8.13395 24.7386 7.54233 24.5795C6.5965 24.3255 5.62775 24.1551 4.67867 23.9129C4.22404 23.797 3.78033 23.6228 3.35135 23.4308C0.858798 22.316 0.868622 19.4123 2.14683 17.927C2.8345 17.1277 3.70938 16.6487 4.72506 16.4093C6.18062 16.0663 7.61546 16.1045 8.98645 16.7528C9.40615 16.9523 9.78765 17.2312 10.2532 17.5133Z" fill="white"/>
<path d="M30.6193 18.1415C29.8126 18.0816 29.0747 18.0272 28.2959 17.9694C28.2959 17.4539 28.2959 16.9652 28.2959 16.4453C29.6849 16.4453 31.0422 16.4453 32.4487 16.4453C32.5366 16.612 32.6403 16.797 32.7341 16.9873C34.694 20.9783 36.6577 24.9667 38.6023 28.9652C38.807 29.3859 39.0302 29.6221 39.5367 29.5935C39.9291 29.5714 40.3275 29.6566 40.7576 29.6971C40.7576 30.1976 40.7576 30.6754 40.7576 31.1549C40.3815 31.2665 36.5246 31.307 35.5001 31.2029C35.385 30.7277 35.4428 30.2391 35.4668 29.7138C35.9433 29.661 36.3876 29.6119 36.8788 29.5579C36.81 29.381 36.7691 29.2478 36.709 29.1238C36.3477 28.379 35.9695 27.6417 35.6251 26.8894C35.4969 26.6094 35.3151 26.4725 35.0166 26.4379C34.0058 26.3209 32.9972 26.1855 31.9859 26.0771C31.302 26.0038 30.6149 25.9639 29.8819 25.9051C29.4639 27.1218 29.0578 28.3035 28.6321 29.5412C29.2063 29.6006 29.7073 29.6523 30.2476 29.7079C30.2476 30.1906 30.2476 30.6668 30.2476 31.1419C29.877 31.2665 25.7275 31.3054 24.9492 31.1867C24.9492 30.7191 24.9492 30.244 24.9492 29.6971C25.382 29.6577 25.8263 29.5968 26.2716 29.5838C26.6056 29.5741 26.7841 29.4679 26.8982 29.1324C28.0967 25.6101 29.3138 22.0942 30.5232 18.5751C30.5631 18.4597 30.5772 18.3356 30.6193 18.1415ZM32.1316 19.7848C32.0814 19.7875 32.0312 19.7897 31.981 19.7924C31.4887 21.2275 30.9969 22.6621 30.4823 24.162C31.8254 24.2957 33.09 24.4219 34.4735 24.56C33.656 22.8924 32.8935 21.3386 32.1316 19.7848Z" fill="white"/>
<path d="M1.77173 1.86231C1.7035 2.60604 1.63419 3.36756 1.56106 4.16577C1.04803 4.16577 0.567207 4.16577 0.00451139 4.16577C-0.00367523 2.80451 0.00178152 1.44972 0.00178152 0.0566406C4.03724 0.0566406 8.02632 0.0566406 12.046 0.0566406C12.046 1.42329 12.046 2.76406 12.046 4.16307C11.5482 4.2375 11.0543 4.22078 10.5151 4.16415C10.443 3.38105 10.3726 2.61952 10.2995 1.82509C9.17409 1.82509 8.09345 1.82509 7.01773 1.82509C6.90803 2.24846 6.88729 12.5226 7.00027 13.1315C7.66721 13.1855 8.34942 13.241 9.07585 13.2998C9.07585 13.8003 9.07585 14.2889 9.07585 14.8131C7.04502 14.8131 5.03656 14.8131 2.99263 14.8131C2.99263 14.3132 2.99263 13.837 2.99263 13.3014C3.67703 13.2469 4.35816 13.1925 5.01909 13.1402C5.0502 13.1116 5.06438 13.0997 5.07639 13.0868C5.0884 13.0738 5.10696 13.0603 5.10805 13.0458C5.12333 12.8856 5.1468 12.7254 5.1468 12.5652C5.14898 9.0073 5.14844 5.4499 5.14844 1.90491C4.73693 1.76253 2.42993 1.73395 1.77173 1.86231Z" fill="white"/>
<path d="M51.6701 23.0749C51.6701 25.2559 51.6701 27.3695 51.6701 29.5279C52.1914 29.5888 52.6869 29.6471 53.212 29.7091C53.212 30.2107 53.212 30.6874 53.212 31.2052C51.5877 31.2052 49.9777 31.2052 48.3093 31.2052C48.2176 30.7257 48.2852 30.235 48.2656 29.7123C48.8141 29.6509 49.3124 29.5948 49.8451 29.5344C49.8451 27.3792 49.8451 25.2505 49.8451 23.0646C49.338 23.0096 48.8403 22.9557 48.2923 22.8958C48.2825 22.6342 48.2705 22.3888 48.2656 22.1434C48.2612 21.9126 48.2645 21.6818 48.2645 21.4127C48.5827 21.3835 48.8627 21.3576 49.1699 21.3291C49.0717 20.9769 48.9571 20.656 48.8949 20.3254C48.6591 19.0655 49.0204 17.9955 50.0656 17.2264C51.1178 16.4519 52.2972 16.3441 53.4586 16.9395C54.2265 17.3332 54.9183 17.872 55.6922 18.3773C55.3833 18.8314 55.1039 19.2419 54.8075 19.6782C54.6536 19.6075 54.5218 19.559 54.4017 19.4905C53.8674 19.1836 53.3424 18.8606 52.8026 18.5634C52.0871 18.1697 51.2865 18.3185 50.8498 18.907C50.446 19.4506 50.5377 20.2909 51.0665 20.8356C51.4267 21.2066 51.8775 21.3647 52.3917 21.3684C52.9369 21.3728 53.4821 21.3798 54.0273 21.3862C54.0448 21.3862 54.0623 21.3965 54.1398 21.4208C54.2091 21.8867 54.2069 22.3732 54.131 22.9055C53.3167 22.9611 52.5259 23.0155 51.6701 23.0749Z" fill="white"/>
<path d="M31.3794 34.5221C30.8729 34.4665 30.3888 34.4137 29.873 34.357C29.873 33.8555 29.873 33.3792 29.873 32.9111C30.3015 32.8 34.0668 32.7747 34.7665 32.8771C34.7665 33.3447 34.7665 33.8199 34.7665 34.3597C34.2976 34.411 33.8174 34.4638 33.3425 34.5156C33.2126 34.8964 33.1597 44.9294 33.2863 45.9288C33.7497 45.9838 34.2294 46.0405 34.7594 46.1036C34.7594 46.5889 34.7594 47.0792 34.7594 47.6099C33.1461 47.6099 31.5366 47.6099 29.8818 47.6099C29.8818 47.1132 29.8818 46.6218 29.8818 46.1036C30.391 46.0475 30.8745 45.9941 31.3499 45.9418C31.4678 45.5378 31.4978 35.2221 31.3794 34.5221Z" fill="white"/>
<path d="M40.3613 25.0489C40.3635 22.9396 41.9861 21.354 44.1381 21.3594C46.2863 21.3648 47.8941 22.958 47.8887 25.0748C47.8832 27.1447 46.2519 28.7433 44.1386 28.7498C42.0063 28.7573 40.3591 27.1431 40.3613 25.0489ZM44.1496 26.9878C45.2842 26.977 46.1133 26.1588 46.1144 25.0489C46.1154 23.9228 45.246 23.0852 44.0961 23.1046C42.9729 23.1235 42.1171 23.9633 42.1144 25.0478C42.1105 26.1475 43.004 26.9986 44.1496 26.9878Z" fill="white"/>
<path d="M57.7634 10.6328C57.1418 12.2556 56.0617 13.3952 54.536 14.1341C53.052 14.853 50.7925 15.0202 49.7402 14.462C50.083 14.2652 50.3767 14.0575 50.7003 13.9173C51.4633 13.5862 52.2339 13.269 53.0138 12.9789C54.6306 12.3781 56.2243 11.7379 57.5926 10.6592C57.6133 10.6425 57.6531 10.6485 57.7634 10.6328Z" fill="white"/>
<path d="M57.1501 0.0488281C57.3395 1.2909 57.5272 2.49683 57.7052 3.70438C57.7996 4.34402 57.8776 4.98528 57.9595 5.62653C58.1565 7.17008 57.6102 8.43264 56.3833 9.36676C55.7704 9.83327 55.0811 10.2264 54.3762 10.5441C53.3032 11.0268 52.1761 11.3914 51.0917 11.852C50.3598 12.1626 49.6454 12.5229 48.9561 12.9177C48.586 13.1296 48.2853 13.4602 47.8989 13.7822C47.5196 13.4759 47.119 13.1528 46.7429 12.8497C46.845 12.353 47.1217 12.0591 47.465 11.8547C47.9922 11.5408 48.5325 11.2344 49.0996 11.0025C50.207 10.5495 51.3449 10.1709 52.4539 9.72163C53.1072 9.45682 53.7545 9.15642 54.3571 8.79561C54.8322 8.51031 55.2743 8.14464 55.6623 7.74878C56.278 7.121 56.594 6.34707 56.5727 5.38276C56.0144 5.32721 55.4642 5.3558 54.9108 5.36442C54.8699 5.4793 54.8251 5.56073 54.812 5.64649C54.717 6.25808 54.3674 6.71759 53.8653 7.03579C53.3174 7.38312 52.7448 7.70779 52.1467 7.95912C51.1277 8.38734 50.0733 8.73251 49.0483 9.14671C48.3437 9.43147 47.6413 9.73619 46.9771 10.1013C46.493 10.3672 46.0722 10.7464 45.5925 11.098C45.2579 10.5414 45.1253 9.91795 45.0778 9.27723C44.9523 7.58482 45.0822 5.90375 45.3327 4.2286C45.5128 3.02105 45.6874 1.81243 45.8675 0.604875C45.8937 0.427974 45.9352 0.253232 45.9756 0.0499062C49.7016 0.0488275 53.4167 0.0488281 57.1501 0.0488281Z" fill="white"/>
<path d="M51.6701 23.0749C51.6701 25.2559 51.6701 27.3695 51.6701 29.5279C52.1914 29.5888 52.6869 29.6471 53.212 29.7091C53.212 30.2107 53.212 30.6874 53.212 31.2052C51.5877 31.2052 49.9777 31.2052 48.3093 31.2052C48.2176 30.7257 48.2852 30.235 48.2656 29.7123C48.8141 29.6509 49.3124 29.5948 49.8451 29.5344C49.8451 27.3792 49.8451 25.2505 49.8451 23.0646C49.338 23.0096 48.8403 22.9557 48.2923 22.8958C48.2825 22.6342 48.2705 22.3888 48.2656 22.1434C48.2612 21.9126 48.2645 21.6818 48.2645 21.4127C48.5827 21.3835 48.8627 21.3576 49.1699 21.3291C49.0717 20.9769 48.9571 20.656 48.8949 20.3254C48.6591 19.0655 49.0204 17.9955 50.0656 17.2264C51.1178 16.4519 52.2972 16.3441 53.4586 16.9395C54.2266 17.3332 54.9183 17.872 55.6922 18.3773C55.3833 18.8314 55.1039 19.2419 54.8075 19.6782C54.6536 19.6075 54.5218 19.559 54.4017 19.4905C53.8674 19.1836 53.3424 18.8606 52.8026 18.5634C52.0871 18.1697 51.2865 18.3185 50.8498 18.907C50.446 19.4506 50.5377 20.2909 51.0665 20.8356C51.4267 21.2066 51.8775 21.3647 52.3917 21.3684C52.9369 21.3728 53.4821 21.3798 54.0273 21.3862C54.0448 21.3862 54.0623 21.3965 54.1398 21.4208C54.2091 21.8867 54.2069 22.3732 54.131 22.9055C53.3167 22.9611 52.5259 23.0155 51.6701 23.0749Z" fill="white"/>
<path d="M57.7614 10.6328C57.1398 12.2556 56.0597 13.3952 54.534 14.1341C53.05 14.853 50.7905 15.0202 49.7383 14.462C50.081 14.2652 50.3747 14.0575 50.6984 13.9173C51.4613 13.5862 52.2319 13.269 53.0118 12.9789C54.6287 12.3781 56.2223 11.7379 57.5906 10.6592C57.6113 10.6425 57.6512 10.6485 57.7614 10.6328Z" fill="white"/>
</svg>
