<svg>
    <symbol id="logo" width="176" height="136" viewBox="0 0 176 136" fill="none" xmlns="http://www.w3.org/2000/svg">
        <g clip-path="url(#clip0_30_949)">
        <path d="M162.097 0.629639C162.632 4.12296 163.161 7.51464 163.664 10.9109C163.93 12.7099 164.15 14.5134 164.382 16.3169C164.938 20.6582 163.396 24.2091 159.933 26.8363C158.203 28.1484 156.257 29.2542 154.267 30.1476C151.239 31.5052 148.058 32.5306 144.997 33.826C142.931 34.6997 140.914 35.7129 138.969 36.8233C137.924 37.4194 137.075 38.3492 135.985 39.2548C134.914 38.3932 133.783 37.4846 132.722 36.6322C133.01 35.2351 133.791 34.4084 134.76 33.8336C136.248 32.9508 137.773 32.0892 139.374 31.4369C142.499 30.1628 145.711 29.0979 148.842 27.8344C150.686 27.0896 152.513 26.2447 154.213 25.23C155.555 24.4275 156.802 23.3991 157.898 22.2858C159.635 20.5201 160.527 18.3434 160.467 15.6313C158.891 15.4751 157.338 15.5555 155.776 15.5798C155.661 15.9028 155.534 16.1319 155.498 16.3731C155.229 18.0932 154.243 19.3855 152.825 20.2805C151.279 21.2573 149.663 22.1705 147.974 22.8773C145.098 24.0817 142.122 25.0525 139.229 26.2174C137.24 27.0183 135.258 27.8754 133.383 28.9023C132.016 29.6501 130.829 30.7164 129.475 31.7054C128.53 30.14 128.156 28.3865 128.022 26.5845C127.668 21.8246 128.034 17.0966 128.741 12.3853C129.25 8.98903 129.743 5.58976 130.251 2.19352C130.325 1.69599 130.442 1.20452 130.556 0.632671C141.073 0.629637 151.559 0.629639 162.097 0.629639Z" fill="white"/>
        <path d="M17.0232 97.1363C17.0232 95.7135 17.0232 94.3741 17.0232 93.0544C18.2094 92.7328 30.102 92.6616 32.0307 92.9589C32.0307 94.28 32.0307 95.6194 32.0307 97.0923C30.6396 97.2425 29.2378 97.3941 27.591 97.5716C31.1849 107.143 34.8066 116.549 38.5084 126.222C38.835 125.691 39.0538 125.43 39.1709 125.131C42.0084 117.926 44.826 110.714 47.679 103.515C47.9825 102.749 48.0025 102.078 47.6698 101.333C47.2985 100.502 46.9534 99.6512 46.707 98.7775C46.425 97.7764 45.8304 97.4351 44.7998 97.4412C43.7816 97.4472 42.7617 97.2561 41.631 97.1393C41.631 95.7666 41.631 94.4257 41.631 93.0741C42.6293 92.7268 54.1614 92.6039 56.6015 92.9467C56.7879 94.2937 56.7325 95.6695 56.62 97.1044C54.9455 97.2637 53.3835 97.4123 51.5934 97.5838C55.1643 106.943 58.6704 116.136 62.1781 125.33C62.3029 125.336 62.4261 125.342 62.5509 125.348C63.7001 122.381 64.5736 119.317 65.5749 116.299C66.6101 113.179 67.6207 110.051 68.642 106.926C69.6449 103.859 70.6478 100.792 71.6984 97.5777C70.0947 97.4169 68.6805 97.2743 67.1401 97.1196C67.1401 95.7271 67.1401 94.3513 67.1401 92.88C72.0943 92.88 76.993 92.88 81.9966 92.88C81.9966 94.3028 81.9966 95.6407 81.9966 97.1241C80.8135 97.2394 79.6566 97.3744 78.495 97.4609C76.993 97.5731 76.9823 97.5534 76.5016 99.0187C74.2356 105.94 71.9741 112.863 69.7127 119.786C68.2677 124.209 66.8258 128.632 65.3762 133.054C65.236 133.482 65.0619 133.9 64.874 134.399C63.3874 134.399 61.9193 134.399 60.2895 134.399C57.1885 126.29 54.069 118.13 50.8047 109.596C50.4473 110.309 50.2085 110.708 50.0406 111.134C47.243 118.246 44.4548 125.362 41.6618 132.474C41.4061 133.127 41.1304 133.77 40.8577 134.433C39.3249 134.433 37.9 134.433 36.3441 134.433C36.1053 133.868 35.8372 133.28 35.6077 132.679C31.3236 121.477 27.0272 110.278 22.7893 99.0581C22.3718 97.9539 21.8711 97.4048 20.6187 97.4366C19.4587 97.4685 18.2879 97.2531 17.0232 97.1363Z" fill="white"/>
        <path d="M102.052 97.1425C102.052 95.6939 102.052 94.356 102.052 92.9226C102.528 92.8726 102.92 92.7967 103.311 92.7952C105.774 92.7846 108.239 92.8331 110.701 92.7679C111.657 92.7421 112.164 93.1213 112.648 93.8828C117.189 101.036 121.766 108.169 126.332 115.307C128.164 118.171 129.994 121.036 131.832 123.897C132.095 124.308 132.391 124.699 132.716 125.162C133.138 124.068 133.284 100.146 132.91 97.6082C131.191 97.4519 129.427 97.2912 127.575 97.1228C127.575 95.7136 127.575 94.3742 127.575 93.0455C128.737 92.7269 140.868 92.6723 142.552 92.9909C142.552 94.303 142.552 95.6378 142.552 97.1091C141.138 97.2684 139.734 97.4262 138.112 97.6082C138.107 101.817 138.1 105.992 138.097 110.166C138.094 114.31 138.097 118.454 138.097 122.598C138.097 126.788 138.097 130.979 138.097 135.332C136.561 135.525 135.085 135.472 133.629 135.366C133.263 135.338 132.867 134.765 132.608 134.365C130.128 130.53 127.674 126.679 125.214 122.83C121.606 117.188 117.999 111.544 114.387 105.902C114.1 105.455 113.774 105.033 113.398 104.502C113.016 105.823 112.968 128.048 113.315 129.676C114.997 129.823 116.721 129.973 118.594 130.136C118.754 131.533 118.717 132.913 118.597 134.396C113.628 134.396 108.723 134.396 103.636 134.396C103.376 133.045 103.482 131.668 103.591 130.166C105.047 129.999 106.447 129.837 107.935 129.665C107.935 118.999 107.935 108.414 107.935 97.6749C106.013 97.502 104.14 97.3321 102.052 97.1425Z" fill="white"/>
        <path d="M47.4651 37.433C49.1427 37.5802 50.8634 37.7319 52.7043 37.8926C52.7043 39.3154 52.7043 40.6912 52.7043 42.158C47.727 42.158 42.8282 42.158 37.8354 42.158C37.8354 40.7292 37.8354 39.3883 37.8354 37.9063C39.2142 37.7561 40.5698 37.609 41.8993 37.4649C42.2366 36.3409 42.3414 7.50396 42.0086 5.35154C40.6977 5.20289 39.3421 5.04816 37.8663 4.87979C37.8663 3.49186 37.8663 2.11154 37.8663 0.635638C42.8112 0.635638 47.71 0.635638 52.7197 0.635638C52.7197 2.04025 52.7197 3.37963 52.7197 4.86918C50.9589 5.03604 49.1981 5.20289 47.3403 5.37885C47.3403 8.92373 47.3403 12.3852 47.3403 15.8285C49.4046 16.8706 64.0531 18.0173 66.655 17.4515C66.655 13.5016 66.655 9.53048 66.655 5.38946C64.885 5.22261 63.1242 5.05574 61.2648 4.87979C61.2648 3.48276 61.2648 2.14035 61.2648 0.794906C62.3339 0.482434 73.2329 0.367156 76.1198 0.659909C76.3539 2.00688 76.26 3.38418 76.1568 4.86918C74.7364 5.03149 73.3793 5.18771 72.0513 5.33939C71.7386 6.53771 71.6816 35.7175 71.9943 37.4391C73.3084 37.5908 74.664 37.747 76.129 37.9154C76.129 39.3352 76.129 40.711 76.129 42.1687C71.1594 42.1687 66.3007 42.1687 61.3388 42.1687C60.9675 40.7913 61.2386 39.408 61.1524 37.9124C63.0179 37.747 64.7386 37.5953 66.4362 37.4452C66.8168 36.3621 66.9138 24.649 66.5826 22.8561C60.2065 22.3479 53.8396 21.8398 47.445 21.3301C47.1539 22.3282 47.1123 35.8373 47.4651 37.433Z" fill="white"/>
        <path d="M175.599 134.427C165.618 134.427 155.729 134.427 145.738 134.427C145.445 133.02 145.567 131.64 145.672 130.157C147.081 129.997 148.438 129.844 150.014 129.665C150.016 118.991 150.014 108.356 150.016 97.6156C148.514 97.4427 147.158 97.2879 145.692 97.1196C145.692 95.7119 145.692 94.3346 145.692 92.8739C155.31 92.8739 164.839 92.8739 174.359 92.8739C174.747 93.9266 174.855 102.366 174.496 104.405C173.182 104.769 171.825 104.57 170.258 104.516C170.041 102.3 169.826 100.118 169.602 97.8446C164.76 97.8446 160.019 97.8446 155.174 97.8446C155.174 102.089 155.174 106.248 155.174 110.512C157.816 110.512 160.352 110.512 163.017 110.512C163.168 109.183 163.312 107.898 163.466 106.533C164.927 106.533 166.289 106.533 167.63 106.533C167.985 107.771 168.014 118.169 167.664 119.622C166.324 119.622 164.964 119.622 163.47 119.622C163.323 118.31 163.186 117.071 163.029 115.651C160.438 115.337 157.867 115.47 155.18 115.51C155.18 120.229 155.18 124.746 155.18 129.253C156.305 129.576 168.544 129.671 170.728 129.353C170.929 126.412 171.132 123.42 171.338 120.368C172.806 120.368 174.128 120.368 175.442 120.368C175.793 121.436 175.918 131.692 175.599 134.427Z" fill="white"/>
        <path d="M37.8448 88.2611C37.8448 86.858 37.8448 85.5187 37.8448 84.0276C39.205 83.8789 40.5606 83.7303 41.8963 83.5847C42.2398 82.4865 42.3661 53.9484 42.0303 51.482C40.7178 51.3288 39.3637 51.171 37.8371 50.9935C37.6661 49.6329 37.7261 48.2496 37.817 46.7585C47.4682 46.7585 57.0439 46.7585 66.8276 46.7585C66.9216 50.5749 66.8538 54.3867 66.8738 58.2441C65.3795 58.6749 64.0162 58.4094 62.4464 58.458C62.2231 56.1979 62.0074 54.0166 61.7825 51.7368C56.9484 51.7368 52.2037 51.7368 47.345 51.7368C47.345 56.0704 47.345 60.3419 47.345 64.6103C48.4618 64.9926 53.4792 65.0305 55.1892 64.6407C55.3309 63.3984 55.4772 62.109 55.6344 60.7196C57.0686 60.7196 58.4304 60.7196 59.7999 60.7196C60.1588 61.7147 60.2774 70.7794 59.9385 73.1305C58.5705 73.4415 57.1718 73.314 55.6683 73.1927C55.5142 72.1036 55.3694 71.0721 55.1984 69.8586C53.8982 69.8586 52.6319 69.8586 51.3672 69.8586C50.0871 69.8586 48.8084 69.8586 47.5699 69.8586C47.1617 70.9978 47.0677 81.32 47.4081 83.1827C48.5496 83.4663 61.0507 83.5316 62.9117 83.2297C63.1011 80.3265 63.2937 77.3762 63.4909 74.3637C64.9266 74.0421 66.2853 74.2014 67.6209 74.2424C67.9537 75.4043 68.023 86.4682 67.7134 88.2626C57.8049 88.2611 47.8764 88.2611 37.8448 88.2611Z" fill="white"/>
        <path d="M97.0689 14.2538C98.5909 14.2538 99.9111 14.2538 101.216 14.2538C101.539 15.4203 101.604 25.5362 101.299 27.3504C99.9588 27.3504 98.6001 27.3504 97.1182 27.3504C96.978 26.1627 96.8393 24.9856 96.6853 23.6856C94.0187 23.6856 91.483 23.6856 88.8488 23.6856C88.8488 28.2286 88.8488 32.6487 88.8488 37.0522C90.1012 37.3631 102.706 37.4041 104.382 37.084C104.58 34.1808 104.782 31.229 104.99 28.177C106.458 28.177 107.817 28.177 109.382 28.177C109.453 32.8201 109.404 37.4344 109.419 42.1488C99.298 42.1488 89.3649 42.1488 79.2931 42.1488C79.2931 40.7411 79.2931 39.3623 79.2931 37.9092C80.7211 37.7529 82.086 37.6043 83.4293 37.4572C83.7575 36.3241 83.8483 7.39159 83.5218 5.35901C82.1661 5.20126 80.7643 5.03744 79.2854 4.86451C79.2854 3.41895 79.2854 2.03862 79.2854 0.599121C88.9505 0.599121 98.4846 0.599121 108 0.599121C108.353 1.73524 108.438 10.2205 108.113 12.194C106.779 12.194 105.423 12.194 103.886 12.194C103.688 10.0719 103.49 7.93311 103.294 5.8262C102.177 5.45305 91.3906 5.33171 89.0167 5.64266C88.6917 6.70142 88.5977 16.52 88.8935 18.4313C89.9456 18.7437 94.8598 18.8241 96.6175 18.5359C96.7084 17.8837 96.8208 17.195 96.8963 16.5018C96.9703 15.8086 97.0042 15.1093 97.0689 14.2538Z" fill="white"/>
        <path d="M29.7322 49.7514C29.8523 48.6593 29.9571 47.7234 30.0665 46.7374C31.5114 46.7374 32.8209 46.7374 34.2381 46.7374C34.2381 51.1909 34.2381 55.5608 34.2381 60.0386C32.6714 60.0386 31.1556 60.0386 29.5073 60.0386C29.3948 59.6002 29.2639 59.1269 29.153 58.6476C28.127 54.2396 24.5438 51.2728 19.9639 51.0453C18.0522 50.9513 16.1651 51.0846 14.3427 51.708C12.8608 52.2146 11.5529 52.9854 10.5993 54.2519C8.54739 56.9747 9.27757 60.5438 12.4202 61.8938C14.6061 62.8328 17 63.3136 19.3215 63.931C21.2502 64.4437 23.2174 64.8197 25.1477 65.3309C26.1336 65.5918 27.0902 65.9802 28.0315 66.3792C36.2685 69.871 36.4749 79.0464 32.1831 84.1279C30.0819 86.6155 27.3398 88.011 24.1772 88.5905C20.1642 89.3261 16.2005 89.003 12.3462 87.6637C10.3883 86.9841 8.6352 85.9496 7.13322 84.5192C6.91755 84.3144 6.67569 84.1368 6.22125 83.7591C5.87772 85.3837 5.5727 86.8201 5.26614 88.2718C3.84735 88.2718 2.53485 88.2718 1.23621 88.2718C1.02516 86.9294 2.17283 76.9865 2.85835 74.15C4.3896 74.15 5.95012 74.15 7.60461 74.15C7.67701 74.5793 7.75403 74.9615 7.80179 75.3468C8.21464 78.6748 9.93845 81.1078 13.0256 82.5109C16.544 84.1097 20.2443 84.4417 24.0031 83.5695C27.2705 82.8126 29.4441 80.4859 29.8477 77.4583C30.1943 74.8584 29.3224 72.6967 26.9485 71.4347C25.4342 70.6308 23.7504 70.0726 22.0806 69.6251C19.4109 68.9106 16.6765 68.4315 13.9977 67.7504C12.7144 67.4243 11.462 66.9343 10.2512 66.3943C3.21574 63.259 3.24347 55.0923 6.85131 50.9148C8.79233 48.6669 11.2617 47.3199 14.1286 46.6464C18.237 45.6817 22.287 45.7892 26.1567 47.6125C27.3413 48.1737 28.4181 48.9581 29.7322 49.7514Z" fill="white"/>
        <path d="M87.2159 51.5093C84.939 51.3409 82.8563 51.1877 80.658 51.0254C80.658 49.5753 80.658 48.201 80.658 46.7388C84.5785 46.7388 88.4097 46.7388 92.3796 46.7388C92.6276 47.2075 92.9203 47.7278 93.1853 48.2632C98.7172 59.4879 104.26 70.7051 109.749 81.951C110.326 83.1342 110.956 83.7985 112.386 83.7182C113.494 83.656 114.618 83.8956 115.832 84.0094C115.832 85.417 115.832 86.761 115.832 88.1094C114.771 88.4234 103.884 88.5372 100.992 88.2444C100.667 86.9081 100.831 85.5338 100.899 84.0564C102.243 83.9078 103.497 83.7697 104.884 83.618C104.69 83.1205 104.574 82.7459 104.405 82.397C103.385 80.3022 102.317 78.2287 101.345 76.1126C100.983 75.3254 100.47 74.9401 99.6276 74.843C96.7746 74.5139 93.9278 74.1332 91.0732 73.8283C89.143 73.622 87.2035 73.5097 85.1346 73.3444C83.9546 76.7664 82.8085 80.0898 81.6069 83.571C83.2275 83.7379 84.6417 83.8835 86.1668 84.0397C86.1668 85.3973 86.1668 86.7367 86.1668 88.073C85.1208 88.4234 73.4084 88.5326 71.2117 88.1989C71.2117 86.8838 71.2117 85.5475 71.2117 84.0094C72.4333 83.8987 73.6872 83.7273 74.9443 83.6908C75.8871 83.6635 76.3908 83.3647 76.7128 82.4212C80.0957 72.5147 83.531 62.6263 86.9447 52.7288C87.0572 52.4042 87.0972 52.0553 87.2159 51.5093ZM91.4846 56.1311C91.3428 56.1387 91.2011 56.1448 91.0594 56.1524C89.6699 60.1887 88.2819 64.2235 86.8292 68.4419C90.6203 68.8181 94.1897 69.173 98.0948 69.5614C95.7872 64.8712 93.6351 60.5012 91.4846 56.1311Z" fill="white"/>
        <path d="M5.79283 5.7276C5.60027 7.81934 5.40463 9.96114 5.1982 12.2061C3.75015 12.2061 2.39298 12.2061 0.804726 12.2061C0.781619 8.37755 0.797021 4.56721 0.797021 0.64917C12.1874 0.64917 23.4469 0.64917 34.7927 0.64917C34.7927 4.49288 34.7927 8.26378 34.7927 12.1985C33.3877 12.4078 31.9936 12.3608 30.4716 12.2015C30.2682 9.99906 30.0695 7.85727 29.8631 5.62294C26.6866 5.62294 23.6364 5.62294 20.6001 5.62294C20.2905 6.81367 20.2319 35.7097 20.5508 37.4223C22.4333 37.574 24.3589 37.7302 26.4093 37.8955C26.4093 39.3032 26.4093 40.6774 26.4093 42.1518C20.6771 42.1518 15.0081 42.1518 9.23893 42.1518C9.23893 40.7457 9.23893 39.4063 9.23893 37.9001C11.1707 37.7469 13.0932 37.5937 14.9588 37.4465C15.0466 37.3661 15.0866 37.3328 15.1205 37.2964C15.1544 37.26 15.2068 37.222 15.2099 37.1811C15.253 36.7306 15.3192 36.2801 15.3192 35.8296C15.3254 25.8229 15.3239 15.8177 15.3239 5.84743C14.1623 5.44698 7.65067 5.36659 5.79283 5.7276Z" fill="white"/>
        <path d="M146.637 65.384C146.637 71.5181 146.637 77.4627 146.637 83.5331C148.108 83.7045 149.507 83.8683 150.989 84.0428C150.989 85.4534 150.989 86.7943 150.989 88.2505C146.405 88.2505 141.86 88.2505 137.151 88.2505C136.892 86.902 137.083 85.5217 137.028 84.0519C138.576 83.879 139.982 83.7212 141.486 83.5513C141.486 77.49 141.486 71.5029 141.486 65.3551C140.055 65.2004 138.65 65.0487 137.103 64.8804C137.075 64.1447 137.042 63.4545 137.028 62.7643C137.015 62.1151 137.025 61.4659 137.025 60.709C137.923 60.6271 138.713 60.5543 139.58 60.4739C139.303 59.4834 138.98 58.5809 138.804 57.651C138.138 54.1077 139.158 51.0982 142.108 48.9352C145.078 46.757 148.407 46.4536 151.685 48.1282C153.853 49.2355 155.806 50.7509 157.99 52.1722C157.118 53.4494 156.329 54.6037 155.493 55.8308C155.058 55.6321 154.686 55.4956 154.347 55.3029C152.839 54.4399 151.357 53.5313 149.834 52.6955C147.814 51.5882 145.554 52.0068 144.322 53.6617C143.182 55.1907 143.441 57.554 144.934 59.086C145.95 60.1296 147.223 60.574 148.674 60.5846C150.213 60.5968 151.752 60.6165 153.291 60.6347C153.34 60.6347 153.389 60.6635 153.608 60.7318C153.804 62.0423 153.797 63.4105 153.583 64.9077C151.285 65.0639 149.053 65.2171 146.637 65.384Z" fill="white"/>
        <path d="M89.3616 97.5793C87.932 97.4231 86.5656 97.2744 85.1099 97.1151C85.1099 95.7045 85.1099 94.3651 85.1099 93.0485C86.3191 92.736 96.947 92.6647 98.9219 92.9529C98.9219 94.268 98.9219 95.6044 98.9219 97.1227C97.5986 97.2668 96.243 97.4155 94.9028 97.5611C94.5361 98.632 94.3867 126.85 94.7441 129.661C96.052 129.815 97.4061 129.975 98.9019 130.152C98.9019 131.517 98.9019 132.896 98.9019 134.389C94.3482 134.389 89.8053 134.389 85.1345 134.389C85.1345 132.992 85.1345 131.61 85.1345 130.152C86.5718 129.994 87.9367 129.844 89.2784 129.697C89.6112 128.561 89.6959 99.5482 89.3616 97.5793Z" fill="white"/>
        <path d="M114.717 70.9462C114.723 65.0138 119.303 60.5543 125.377 60.5694C131.44 60.5846 135.979 65.0654 135.963 71.019C135.948 76.8407 131.343 81.3367 125.379 81.3549C119.36 81.3761 114.711 76.8362 114.717 70.9462ZM125.409 76.3993C128.612 76.369 130.952 74.0679 130.955 70.9462C130.958 67.779 128.504 65.4234 125.258 65.478C122.088 65.5311 119.673 67.8928 119.665 70.9432C119.654 74.0361 122.176 76.4297 125.409 76.3993Z" fill="white"/>
        <path d="M163.832 30.3979C162.077 34.9621 159.028 38.1672 154.722 40.2453C150.533 42.2673 144.156 42.7375 141.186 41.1676C142.153 40.6139 142.982 40.0299 143.895 39.6355C146.049 38.7042 148.224 37.8123 150.425 36.9962C154.989 35.3064 159.487 33.5059 163.349 30.4722C163.408 30.4252 163.52 30.4419 163.832 30.3979Z" fill="white"/>
        <path d="M162.101 0.630432C162.636 4.12375 163.166 7.51544 163.668 10.9117C163.935 12.7107 164.155 14.5142 164.386 16.3177C164.942 20.659 163.4 24.2099 159.937 26.8371C158.207 28.1492 156.261 29.255 154.272 30.1484C151.243 31.506 148.062 32.5314 145.001 33.8268C142.935 34.7005 140.919 35.7137 138.973 36.8241C137.929 37.4202 137.08 38.35 135.989 39.2556C134.918 38.394 133.788 37.4854 132.726 36.6329C133.014 35.2359 133.795 34.4092 134.764 33.8343C136.253 32.9515 137.778 32.09 139.378 31.4377C142.504 30.1636 145.716 29.0987 148.846 27.8352C150.69 27.0904 152.517 26.2455 154.218 25.2308C155.559 24.4283 156.807 23.3999 157.902 22.2865C159.64 20.5209 160.532 18.3442 160.472 15.6321C158.896 15.4759 157.343 15.5563 155.781 15.5805C155.665 15.9036 155.539 16.1327 155.502 16.3738C155.234 18.094 154.247 19.3863 152.83 20.2813C151.283 21.2581 149.667 22.1713 147.979 22.8781C145.103 24.0825 142.126 25.0533 139.233 26.2182C137.245 27.0191 135.262 27.8761 133.387 28.9031C132.021 29.6509 130.833 30.7172 129.479 31.7062C128.535 30.1408 128.16 28.3873 128.026 26.5853C127.672 21.8254 128.039 17.0974 128.746 12.3861C129.254 8.98982 129.747 5.59055 130.255 2.19431C130.329 1.69678 130.446 1.20532 130.56 0.633464C141.077 0.63043 151.563 0.630432 162.101 0.630432Z" fill="white"/>
        <path d="M146.637 65.384C146.637 71.5181 146.637 77.4627 146.637 83.5331C148.108 83.7045 149.507 83.8683 150.989 84.0428C150.989 85.4534 150.989 86.7943 150.989 88.2505C146.404 88.2505 141.86 88.2505 137.15 88.2505C136.892 86.902 137.083 85.5217 137.027 84.0519C138.575 83.879 139.982 83.7212 141.485 83.5513C141.485 77.49 141.485 71.5029 141.485 65.3551C140.054 65.2004 138.649 65.0487 137.103 64.8804C137.075 64.1447 137.041 63.4545 137.027 62.7643C137.015 62.1151 137.024 61.4659 137.024 60.709C137.922 60.6271 138.713 60.5543 139.58 60.4739C139.303 59.4834 138.979 58.5809 138.803 57.651C138.138 54.1077 139.158 51.0982 142.108 48.9352C145.078 46.757 148.407 46.4536 151.685 48.1282C153.852 49.2355 155.805 50.7509 157.989 52.1722C157.118 53.4494 156.329 54.6037 155.492 55.8308C155.058 55.6321 154.686 55.4956 154.347 55.3029C152.839 54.4399 151.357 53.5313 149.833 52.6955C147.814 51.5882 145.554 52.0068 144.321 53.6617C143.181 55.1907 143.44 57.554 144.933 59.086C145.95 60.1296 147.222 60.574 148.673 60.5846C150.212 60.5968 151.751 60.6165 153.29 60.6347C153.339 60.6347 153.389 60.6635 153.608 60.7318C153.803 62.0423 153.797 63.4105 153.583 64.9077C151.284 65.0639 149.052 65.2171 146.637 65.384Z" fill="white"/>
        <path d="M163.83 30.3975C162.075 34.9617 159.027 38.1668 154.72 40.2449C150.532 42.2668 144.154 42.7371 141.184 41.1671C142.151 40.6135 142.98 40.0295 143.894 39.6351C146.047 38.7037 148.222 37.8118 150.424 36.9958C154.987 35.306 159.486 33.5055 163.348 30.4718C163.406 30.4248 163.519 30.4414 163.83 30.3975Z" fill="white"/>
        </g>
        <defs>
        <clipPath id="clip0_30_949">
        <rect width="175" height="135" fill="white" transform="translate(0.791992 0.490967)"/>
        </clipPath>
        </defs>
    </symbol>

</svg>